<mxfile host="app.diagrams.net" modified="2024-02-03T12:19:57.094Z" agent="Mozilla/5.0 (Windows NT 10.0; Win64; x64) AppleWebKit/537.36 (KHTML, like Gecko) Chrome/121.0.0.0 Safari/537.36" etag="z0_LK9nuMb0RPfWajeI4" version="23.1.1" type="google">
  <diagram id="oMTO6-Lr6PeZItVm48ay" name="Page-1">
    <mxGraphModel grid="1" page="1" gridSize="10" guides="1" tooltips="1" connect="1" arrows="1" fold="1" pageScale="1" pageWidth="850" pageHeight="1100" math="0" shadow="0">
      <root>
        <mxCell id="0" />
        <mxCell id="1" parent="0" />
        <mxCell id="HYf7sJNPhCu9qOCA5l1V-1" value="" style="rounded=0;whiteSpace=wrap;html=1;fillColor=#FFFF8A;" vertex="1" parent="1">
          <mxGeometry x="-340" y="46" width="760" height="764" as="geometry" />
        </mxCell>
        <mxCell id="HYf7sJNPhCu9qOCA5l1V-2" value="" style="rounded=0;whiteSpace=wrap;html=1;fillColor=#CCFF99;strokeColor=#000000;" vertex="1" parent="1">
          <mxGeometry x="-190" y="73" width="598.12" height="717" as="geometry" />
        </mxCell>
        <mxCell id="HYf7sJNPhCu9qOCA5l1V-3" value="" style="whiteSpace=wrap;html=1;aspect=fixed;fillColor=#f8cecc;gradientColor=#ea6b66;strokeColor=#b85450;" vertex="1" parent="1">
          <mxGeometry x="111.56" y="445" width="291.25" height="291.25" as="geometry" />
        </mxCell>
        <mxCell id="HYf7sJNPhCu9qOCA5l1V-4" value="" style="rounded=1;whiteSpace=wrap;html=1;fillColor=default;strokeColor=default;fontColor=default;" vertex="1" parent="1">
          <mxGeometry x="240" y="480" width="140" height="214.26" as="geometry" />
        </mxCell>
        <mxCell id="HYf7sJNPhCu9qOCA5l1V-5" value="&lt;b&gt;I3C&amp;nbsp;&lt;br&gt;TARGET&amp;nbsp;&lt;br&gt;MONITOR PROXY&lt;/b&gt;" style="rounded=1;whiteSpace=wrap;html=1;" vertex="1" parent="1">
          <mxGeometry x="265" y="525.94" width="100" height="67" as="geometry" />
        </mxCell>
        <mxCell id="HYf7sJNPhCu9qOCA5l1V-7" value="&lt;b&gt;I3C&lt;br&gt;&lt;/b&gt;&lt;b style=&quot;border-color: var(--border-color);&quot;&gt;TARGET&lt;/b&gt;&lt;b&gt;&amp;nbsp;&lt;br&gt;SEQUENCER&lt;/b&gt;" style="rounded=1;whiteSpace=wrap;html=1;" vertex="1" parent="1">
          <mxGeometry x="130" y="623.5" width="88" height="69.99" as="geometry" />
        </mxCell>
        <mxCell id="HYf7sJNPhCu9qOCA5l1V-8" value="" style="rounded=1;whiteSpace=wrap;html=1;" vertex="1" parent="1">
          <mxGeometry x="-120" y="550" width="180" height="205.62" as="geometry" />
        </mxCell>
        <mxCell id="HYf7sJNPhCu9qOCA5l1V-9" value="&lt;b&gt;I3C&lt;br&gt;&lt;/b&gt;&lt;b&gt;TARGET&lt;br&gt;VIRTUAL SEQUENCER&lt;/b&gt;&lt;b&gt;&lt;br&gt;&lt;/b&gt;" style="rounded=1;whiteSpace=wrap;html=1;" vertex="1" parent="1">
          <mxGeometry x="-80" y="666.75" width="120" height="63.25" as="geometry" />
        </mxCell>
        <mxCell id="HYf7sJNPhCu9qOCA5l1V-10" value="" style="rounded=1;whiteSpace=wrap;html=1;fillColor=#f8cecc;strokeColor=#b85450;" vertex="1" parent="1">
          <mxGeometry x="-168" y="260" width="198" height="110" as="geometry" />
        </mxCell>
        <mxCell id="HYf7sJNPhCu9qOCA5l1V-11" value="" style="rounded=1;whiteSpace=wrap;html=1;" vertex="1" parent="1">
          <mxGeometry x="-330" y="510" width="125" height="240" as="geometry" />
        </mxCell>
        <mxCell id="HYf7sJNPhCu9qOCA5l1V-12" value="&lt;font style=&quot;&quot;&gt;&lt;b style=&quot;font-size: 10px;&quot;&gt;APB&lt;br&gt;&lt;/b&gt;&lt;span style=&quot;border-color: var(--border-color);&quot;&gt;&lt;b style=&quot;&quot;&gt;&lt;font style=&quot;font-size: 10px;&quot;&gt;MASTER&lt;/font&gt;&lt;/b&gt;&lt;/span&gt;&lt;b style=&quot;font-size: 10px;&quot;&gt;&lt;br&gt;VIRTUAL SEQUENCE&lt;/b&gt;&lt;/font&gt;" style="rounded=1;whiteSpace=wrap;html=1;" vertex="1" parent="1">
          <mxGeometry x="-315" y="575.94" width="90" height="59.06" as="geometry" />
        </mxCell>
        <mxCell id="HYf7sJNPhCu9qOCA5l1V-13" value="&lt;font style=&quot;&quot;&gt;&lt;b style=&quot;font-size: 10px;&quot;&gt;I3C&lt;br&gt;&lt;/b&gt;&lt;b style=&quot;border-color: var(--border-color);&quot;&gt;&lt;font style=&quot;font-size: 10px;&quot;&gt;TARGET&lt;/font&gt;&lt;/b&gt;&lt;b style=&quot;font-size: 10px;&quot;&gt;&lt;br&gt;VIRTUAL SEQUENCE&lt;/b&gt;&lt;/font&gt;" style="rounded=1;whiteSpace=wrap;html=1;" vertex="1" parent="1">
          <mxGeometry x="-315" y="667.76" width="95" height="65.74" as="geometry" />
        </mxCell>
        <mxCell id="HYf7sJNPhCu9qOCA5l1V-14" value="" style="rounded=0;whiteSpace=wrap;html=1;fillColor=#CCE5FF;strokeColor=#000000;fontColor=#ffffff;" vertex="1" parent="1">
          <mxGeometry x="460" y="50" width="520" height="750" as="geometry" />
        </mxCell>
        <mxCell id="HYf7sJNPhCu9qOCA5l1V-15" value="" style="whiteSpace=wrap;html=1;aspect=fixed;fillColor=#e1d5e7;strokeColor=#9673a6;" vertex="1" parent="1">
          <mxGeometry x="490" y="430" width="310" height="310" as="geometry" />
        </mxCell>
        <mxCell id="HYf7sJNPhCu9qOCA5l1V-16" style="edgeStyle=none;rounded=0;orthogonalLoop=1;jettySize=auto;html=1;exitX=1;exitY=0.5;exitDx=0;exitDy=0;fontSize=14;endSize=6;strokeWidth=1;entryX=-0.013;entryY=0.851;entryDx=0;entryDy=0;entryPerimeter=0;" edge="1" parent="1" source="UZ0a1MYILR4OjAqma-lh-18" target="HYf7sJNPhCu9qOCA5l1V-18">
          <mxGeometry relative="1" as="geometry">
            <mxPoint x="730" y="656.94" as="sourcePoint" />
            <mxPoint x="770" y="584" as="targetPoint" />
          </mxGeometry>
        </mxCell>
        <mxCell id="HYf7sJNPhCu9qOCA5l1V-18" value="" style="rounded=0;whiteSpace=wrap;html=1;fillColor=#64FF12;" vertex="1" parent="1">
          <mxGeometry x="864" y="120" width="96" height="610" as="geometry" />
        </mxCell>
        <mxCell id="HYf7sJNPhCu9qOCA5l1V-19" style="edgeStyle=orthogonalEdgeStyle;rounded=0;orthogonalLoop=1;jettySize=auto;html=1;exitX=0.5;exitY=1;exitDx=0;exitDy=0;fontSize=10;" edge="1" parent="1">
          <mxGeometry relative="1" as="geometry">
            <mxPoint x="302.5" y="329.9999999999999" as="sourcePoint" />
            <mxPoint x="302.5" y="329.9999999999999" as="targetPoint" />
          </mxGeometry>
        </mxCell>
        <mxCell id="HYf7sJNPhCu9qOCA5l1V-20" style="edgeStyle=orthogonalEdgeStyle;rounded=0;orthogonalLoop=1;jettySize=auto;html=1;exitX=0.5;exitY=1;exitDx=0;exitDy=0;fontSize=10;" edge="1" parent="1">
          <mxGeometry relative="1" as="geometry">
            <mxPoint x="156.8699999999999" y="315" as="sourcePoint" />
            <mxPoint x="156.8699999999999" y="315" as="targetPoint" />
          </mxGeometry>
        </mxCell>
        <mxCell id="HYf7sJNPhCu9qOCA5l1V-21" value="ENV" style="text;html=1;strokeColor=none;fillColor=none;align=center;verticalAlign=middle;whiteSpace=wrap;rounded=0;fontSize=14;fontStyle=1" vertex="1" parent="1">
          <mxGeometry x="-168" y="83.63" width="60" height="30" as="geometry" />
        </mxCell>
        <mxCell id="HYf7sJNPhCu9qOCA5l1V-22" value="&lt;font style=&quot;font-size: 14px&quot;&gt;TEST&lt;/font&gt;" style="text;html=1;strokeColor=none;fillColor=none;align=center;verticalAlign=middle;whiteSpace=wrap;rounded=0;fontSize=15;fontStyle=1" vertex="1" parent="1">
          <mxGeometry x="-340" y="50" width="60" height="30" as="geometry" />
        </mxCell>
        <mxCell id="HYf7sJNPhCu9qOCA5l1V-23" value="&lt;font style=&quot;font-size: 12px&quot;&gt;I3C TARGET&amp;nbsp;&lt;br&gt;PROXY&lt;/font&gt;" style="text;html=1;strokeColor=none;fillColor=none;align=center;verticalAlign=middle;whiteSpace=wrap;rounded=0;fontSize=12;fontStyle=1" vertex="1" parent="1">
          <mxGeometry x="270" y="485.87" width="100" height="30" as="geometry" />
        </mxCell>
        <mxCell id="HYf7sJNPhCu9qOCA5l1V-24" value="&lt;font style=&quot;font-size: 22px;&quot;&gt;SCOREBOARD&lt;/font&gt;" style="text;html=1;strokeColor=none;fillColor=none;align=center;verticalAlign=middle;whiteSpace=wrap;rounded=0;fontSize=12;fontColor=default;fontStyle=1" vertex="1" parent="1">
          <mxGeometry x="-140" y="288.14" width="120" height="40" as="geometry" />
        </mxCell>
        <mxCell id="HYf7sJNPhCu9qOCA5l1V-25" value="&lt;font style=&quot;font-size: 12px&quot;&gt;I3C VIRTUAL SEQUENCER&lt;/font&gt;" style="text;html=1;strokeColor=none;fillColor=none;align=center;verticalAlign=middle;whiteSpace=wrap;rounded=0;fontSize=11;fontStyle=1" vertex="1" parent="1">
          <mxGeometry x="-90" y="554.38" width="120" height="28.31" as="geometry" />
        </mxCell>
        <mxCell id="HYf7sJNPhCu9qOCA5l1V-26" value="&lt;font style=&quot;font-size: 12px&quot;&gt;I3C VIRTUAL SEQUENCE&lt;/font&gt;" style="text;html=1;strokeColor=none;fillColor=none;align=center;verticalAlign=middle;whiteSpace=wrap;rounded=0;fontSize=11;fontStyle=1" vertex="1" parent="1">
          <mxGeometry x="-330" y="516.4" width="130" height="41.36" as="geometry" />
        </mxCell>
        <mxCell id="HYf7sJNPhCu9qOCA5l1V-27" value="" style="rhombus;whiteSpace=wrap;html=1;fontSize=10;" vertex="1" parent="1">
          <mxGeometry x="245" y="557.76" width="20" height="16.25" as="geometry" />
        </mxCell>
        <mxCell id="HYf7sJNPhCu9qOCA5l1V-28" value="" style="whiteSpace=wrap;html=1;aspect=fixed;fontSize=10;" vertex="1" parent="1">
          <mxGeometry x="250.31" y="642.5699999999999" width="13.75" height="13.75" as="geometry" />
        </mxCell>
        <mxCell id="HYf7sJNPhCu9qOCA5l1V-29" value="" style="ellipse;whiteSpace=wrap;html=1;fontSize=10;" vertex="1" parent="1">
          <mxGeometry x="218" y="642.5699999999999" width="10" height="15" as="geometry" />
        </mxCell>
        <mxCell id="HYf7sJNPhCu9qOCA5l1V-30" value="" style="triangle;whiteSpace=wrap;html=1;fontSize=10;" vertex="1" parent="1">
          <mxGeometry x="123.13" y="653" width="6.87" height="13.75" as="geometry" />
        </mxCell>
        <mxCell id="HYf7sJNPhCu9qOCA5l1V-32" value="&lt;font style=&quot;font-size: 18px&quot;&gt;HVL TOP&lt;/font&gt;" style="text;html=1;strokeColor=none;fillColor=none;align=center;verticalAlign=middle;whiteSpace=wrap;rounded=0;fontSize=15;fontStyle=1" vertex="1" parent="1">
          <mxGeometry x="-340" y="10" width="90" height="30" as="geometry" />
        </mxCell>
        <mxCell id="HYf7sJNPhCu9qOCA5l1V-33" value="&lt;font style=&quot;font-size: 18px&quot;&gt;HDL TOP&lt;/font&gt;" style="text;html=1;strokeColor=none;fillColor=none;align=center;verticalAlign=middle;whiteSpace=wrap;rounded=0;fontSize=13;fontStyle=1" vertex="1" parent="1">
          <mxGeometry x="470" y="10" width="90" height="30" as="geometry" />
        </mxCell>
        <mxCell id="HYf7sJNPhCu9qOCA5l1V-34" value="" style="endArrow=none;html=1;rounded=0;fontSize=10;entryX=0;entryY=0.5;entryDx=0;entryDy=0;exitX=1;exitY=0.5;exitDx=0;exitDy=0;" edge="1" parent="1" source="HYf7sJNPhCu9qOCA5l1V-29" target="HYf7sJNPhCu9qOCA5l1V-28">
          <mxGeometry width="50" height="50" relative="1" as="geometry">
            <mxPoint x="230" y="550" as="sourcePoint" />
            <mxPoint x="290" y="330" as="targetPoint" />
          </mxGeometry>
        </mxCell>
        <mxCell id="HYf7sJNPhCu9qOCA5l1V-35" value="I3C&amp;nbsp;&lt;b style=&quot;border-color: var(--border-color);&quot;&gt;TARGET&lt;/b&gt;&amp;nbsp;AGENT" style="text;html=1;strokeColor=none;fillColor=none;align=center;verticalAlign=middle;whiteSpace=wrap;rounded=0;fontColor=default;fontStyle=1" vertex="1" parent="1">
          <mxGeometry x="152.07" y="450" width="141.86" height="30" as="geometry" />
        </mxCell>
        <mxCell id="HYf7sJNPhCu9qOCA5l1V-36" value="&lt;font style=&quot;font-size: 14px&quot;&gt;I3C TARGET AGENT BFM&lt;/font&gt;" style="text;html=1;strokeColor=none;fillColor=none;align=center;verticalAlign=middle;whiteSpace=wrap;rounded=0;fontStyle=1" vertex="1" parent="1">
          <mxGeometry x="511.88" y="445" width="220" height="30" as="geometry" />
        </mxCell>
        <mxCell id="HYf7sJNPhCu9qOCA5l1V-37" value="" style="endArrow=classic;startArrow=classic;html=1;rounded=0;exitX=0.007;exitY=0.611;exitDx=0;exitDy=0;exitPerimeter=0;entryX=1;entryY=0.5;entryDx=0;entryDy=0;" edge="1" parent="1" source="UZ0a1MYILR4OjAqma-lh-18" target="UZ0a1MYILR4OjAqma-lh-22">
          <mxGeometry width="50" height="50" relative="1" as="geometry">
            <mxPoint x="520" y="656.94" as="sourcePoint" />
            <mxPoint x="360" y="649" as="targetPoint" />
          </mxGeometry>
        </mxCell>
        <mxCell id="HYf7sJNPhCu9qOCA5l1V-39" value="" style="triangle;whiteSpace=wrap;html=1;" vertex="1" parent="1">
          <mxGeometry x="-60" y="485.87" width="10" height="17.5" as="geometry" />
        </mxCell>
        <mxCell id="HYf7sJNPhCu9qOCA5l1V-42" value="" style="endArrow=none;dashed=1;html=1;rounded=0;entryX=-0.027;entryY=0.523;entryDx=0;entryDy=0;exitX=1;exitY=0.5;exitDx=0;exitDy=0;entryPerimeter=0;" edge="1" parent="1" source="HYf7sJNPhCu9qOCA5l1V-12" target="HYf7sJNPhCu9qOCA5l1V-91">
          <mxGeometry width="50" height="50" relative="1" as="geometry">
            <mxPoint x="-105" y="457.5" as="sourcePoint" />
            <mxPoint x="210" y="430" as="targetPoint" />
            <Array as="points">
              <mxPoint x="-170" y="605" />
              <mxPoint x="-170" y="623" />
            </Array>
          </mxGeometry>
        </mxCell>
        <mxCell id="HYf7sJNPhCu9qOCA5l1V-52" value="" style="ellipse;whiteSpace=wrap;html=1;aspect=fixed;" vertex="1" parent="1">
          <mxGeometry x="90" y="210" width="10" height="10" as="geometry" />
        </mxCell>
        <mxCell id="HYf7sJNPhCu9qOCA5l1V-57" style="edgeStyle=none;rounded=0;orthogonalLoop=1;jettySize=auto;html=1;exitX=0;exitY=0.5;exitDx=0;exitDy=0;entryX=1;entryY=0.5;entryDx=0;entryDy=0;fontSize=10;endSize=6;strokeWidth=1;" edge="1" parent="1" source="HYf7sJNPhCu9qOCA5l1V-58" target="HYf7sJNPhCu9qOCA5l1V-5">
          <mxGeometry relative="1" as="geometry">
            <Array as="points">
              <mxPoint x="440" y="520" />
              <mxPoint x="440" y="559" />
            </Array>
          </mxGeometry>
        </mxCell>
        <mxCell id="HYf7sJNPhCu9qOCA5l1V-58" value="&lt;span style=&quot;font-size: 14px ; font-weight: 700&quot;&gt;I3C Target&lt;br&gt;MONITOR BFM&lt;/span&gt;" style="rounded=1;whiteSpace=wrap;html=1;" vertex="1" parent="1">
          <mxGeometry x="520" y="480" width="190" height="80" as="geometry" />
        </mxCell>
        <mxCell id="HYf7sJNPhCu9qOCA5l1V-59" style="edgeStyle=none;rounded=0;orthogonalLoop=1;jettySize=auto;html=1;exitX=0.013;exitY=0.659;exitDx=0;exitDy=0;fontSize=14;endSize=6;strokeWidth=1;entryX=1;entryY=0.5;entryDx=0;entryDy=0;exitPerimeter=0;" edge="1" parent="1" source="HYf7sJNPhCu9qOCA5l1V-18" target="HYf7sJNPhCu9qOCA5l1V-58">
          <mxGeometry relative="1" as="geometry">
            <mxPoint x="861.9839999999999" y="495.96000000000004" as="sourcePoint" />
            <mxPoint x="690" y="496.55999999999995" as="targetPoint" />
          </mxGeometry>
        </mxCell>
        <mxCell id="HYf7sJNPhCu9qOCA5l1V-60" value="" style="whiteSpace=wrap;html=1;aspect=fixed;fillColor=#e1d5e7;strokeColor=#9673a6;" vertex="1" parent="1">
          <mxGeometry x="490" y="98.64" width="310" height="310" as="geometry" />
        </mxCell>
        <mxCell id="HYf7sJNPhCu9qOCA5l1V-62" value="&lt;span style=&quot;font-size: 14px;&quot;&gt;APB MASTER BFM&lt;/span&gt;" style="text;html=1;strokeColor=none;fillColor=none;align=center;verticalAlign=middle;whiteSpace=wrap;rounded=0;fontStyle=1" vertex="1" parent="1">
          <mxGeometry x="511.88" y="108.13" width="186.25" height="30" as="geometry" />
        </mxCell>
        <mxCell id="HYf7sJNPhCu9qOCA5l1V-64" value="" style="whiteSpace=wrap;html=1;aspect=fixed;fillColor=#f8cecc;strokeColor=#b85450;gradientColor=#ea6b66;" vertex="1" parent="1">
          <mxGeometry x="120" y="85.63" width="284.37" height="284.37" as="geometry" />
        </mxCell>
        <mxCell id="HYf7sJNPhCu9qOCA5l1V-65" value="" style="rounded=1;whiteSpace=wrap;html=1;fillColor=default;strokeColor=default;fontColor=default;" vertex="1" parent="1">
          <mxGeometry x="240" y="130" width="140" height="218.64" as="geometry" />
        </mxCell>
        <mxCell id="HYf7sJNPhCu9qOCA5l1V-66" value="&lt;b&gt;APB MASTER&lt;br&gt;&amp;nbsp;MONITOR PROXY&lt;/b&gt;" style="rounded=1;whiteSpace=wrap;html=1;" vertex="1" parent="1">
          <mxGeometry x="265" y="180" width="100" height="60" as="geometry" />
        </mxCell>
        <mxCell id="HYf7sJNPhCu9qOCA5l1V-68" value="&lt;b&gt;APB&lt;br&gt;MASTER&amp;nbsp;&lt;br&gt;SEQUENCER&lt;/b&gt;" style="rounded=1;whiteSpace=wrap;html=1;" vertex="1" parent="1">
          <mxGeometry x="130" y="268.65" width="88" height="69.99" as="geometry" />
        </mxCell>
        <mxCell id="HYf7sJNPhCu9qOCA5l1V-69" value="&lt;font style=&quot;font-size: 12px&quot;&gt;APB MASTER&lt;br&gt;&amp;nbsp;PROXY&lt;/font&gt;" style="text;html=1;strokeColor=none;fillColor=none;align=center;verticalAlign=middle;whiteSpace=wrap;rounded=0;fontSize=12;fontStyle=1" vertex="1" parent="1">
          <mxGeometry x="260" y="144" width="100" height="30" as="geometry" />
        </mxCell>
        <mxCell id="HYf7sJNPhCu9qOCA5l1V-70" value="APB MASTER AGENT" style="text;html=1;strokeColor=none;fillColor=none;align=center;verticalAlign=middle;whiteSpace=wrap;rounded=0;fontColor=default;fontStyle=1" vertex="1" parent="1">
          <mxGeometry x="180" y="92.88" width="141.86" height="30" as="geometry" />
        </mxCell>
        <mxCell id="HYf7sJNPhCu9qOCA5l1V-72" value="" style="endArrow=classic;startArrow=classic;html=1;rounded=0;exitX=-0.01;exitY=0.621;exitDx=0;exitDy=0;entryX=1;entryY=0.5;entryDx=0;entryDy=0;exitPerimeter=0;" edge="1" parent="1" source="UZ0a1MYILR4OjAqma-lh-19" target="UZ0a1MYILR4OjAqma-lh-21">
          <mxGeometry width="50" height="50" relative="1" as="geometry">
            <mxPoint x="520" y="305.7300000000001" as="sourcePoint" />
            <mxPoint x="365" y="314.27000000000004" as="targetPoint" />
            <Array as="points">
              <mxPoint x="440" y="320" />
              <mxPoint x="440" y="300" />
            </Array>
          </mxGeometry>
        </mxCell>
        <mxCell id="HYf7sJNPhCu9qOCA5l1V-73" style="edgeStyle=none;rounded=0;orthogonalLoop=1;jettySize=auto;html=1;fontSize=14;endSize=6;strokeWidth=1;exitX=1;exitY=0.5;exitDx=0;exitDy=0;entryX=-0.004;entryY=0.312;entryDx=0;entryDy=0;entryPerimeter=0;" edge="1" parent="1" source="UZ0a1MYILR4OjAqma-lh-19" target="HYf7sJNPhCu9qOCA5l1V-18">
          <mxGeometry relative="1" as="geometry">
            <mxPoint x="689.1499999999996" y="285.1630000000001" as="sourcePoint" />
            <mxPoint x="860" y="310" as="targetPoint" />
          </mxGeometry>
        </mxCell>
        <mxCell id="HYf7sJNPhCu9qOCA5l1V-74" style="edgeStyle=none;rounded=0;orthogonalLoop=1;jettySize=auto;html=1;fontSize=14;endSize=6;strokeWidth=1;entryX=1;entryY=0.5;entryDx=0;entryDy=0;exitX=0.01;exitY=0.138;exitDx=0;exitDy=0;exitPerimeter=0;" edge="1" parent="1" source="HYf7sJNPhCu9qOCA5l1V-18" target="UZ0a1MYILR4OjAqma-lh-20">
          <mxGeometry relative="1" as="geometry">
            <mxPoint x="865.9200000000001" y="198.12" as="sourcePoint" />
            <mxPoint x="688.1300000000001" y="192.88835000000006" as="targetPoint" />
          </mxGeometry>
        </mxCell>
        <mxCell id="HYf7sJNPhCu9qOCA5l1V-75" value="" style="ellipse;whiteSpace=wrap;html=1;fontSize=10;" vertex="1" parent="1">
          <mxGeometry x="218" y="297.14" width="10" height="15" as="geometry" />
        </mxCell>
        <mxCell id="HYf7sJNPhCu9qOCA5l1V-76" value="" style="whiteSpace=wrap;html=1;aspect=fixed;fontSize=10;" vertex="1" parent="1">
          <mxGeometry x="250.31" y="296.77" width="13.75" height="13.75" as="geometry" />
        </mxCell>
        <mxCell id="HYf7sJNPhCu9qOCA5l1V-77" value="" style="endArrow=none;html=1;rounded=0;fontSize=10;entryX=0;entryY=0.5;entryDx=0;entryDy=0;exitX=1;exitY=0.5;exitDx=0;exitDy=0;" edge="1" parent="1" source="HYf7sJNPhCu9qOCA5l1V-75">
          <mxGeometry width="50" height="50" relative="1" as="geometry">
            <mxPoint x="238" y="597.2600000000001" as="sourcePoint" />
            <mxPoint x="250.30999999999995" y="304.645" as="targetPoint" />
          </mxGeometry>
        </mxCell>
        <mxCell id="HYf7sJNPhCu9qOCA5l1V-78" value="" style="rhombus;whiteSpace=wrap;html=1;fontSize=10;" vertex="1" parent="1">
          <mxGeometry x="245" y="205.72" width="20" height="16.25" as="geometry" />
        </mxCell>
        <mxCell id="HYf7sJNPhCu9qOCA5l1V-88" value="" style="endArrow=none;html=1;rounded=0;exitX=1;exitY=0.5;exitDx=0;exitDy=0;entryX=0;entryY=0.5;entryDx=0;entryDy=0;" edge="1" parent="1" source="HYf7sJNPhCu9qOCA5l1V-52" target="HYf7sJNPhCu9qOCA5l1V-78">
          <mxGeometry width="50" height="50" relative="1" as="geometry">
            <mxPoint x="100" y="283.65" as="sourcePoint" />
            <mxPoint x="255" y="508.125" as="targetPoint" />
            <Array as="points">
              <mxPoint x="110" y="215" />
              <mxPoint x="140" y="215" />
            </Array>
          </mxGeometry>
        </mxCell>
        <mxCell id="HYf7sJNPhCu9qOCA5l1V-90" style="edgeStyle=none;rounded=0;orthogonalLoop=1;jettySize=auto;html=1;exitX=0;exitY=0.563;exitDx=0;exitDy=0;fontSize=10;endSize=6;strokeWidth=1;exitPerimeter=0;entryX=0.997;entryY=0.444;entryDx=0;entryDy=0;entryPerimeter=0;" edge="1" parent="1" source="UZ0a1MYILR4OjAqma-lh-20" target="HYf7sJNPhCu9qOCA5l1V-66">
          <mxGeometry relative="1" as="geometry">
            <mxPoint x="520" y="190.09500000000014" as="sourcePoint" />
            <mxPoint x="360" y="205" as="targetPoint" />
            <Array as="points" />
          </mxGeometry>
        </mxCell>
        <mxCell id="HYf7sJNPhCu9qOCA5l1V-91" value="&lt;b&gt;APB&amp;nbsp;&lt;br&gt;MASTER&lt;br&gt;VIRTUAL SEQUENCER&lt;br&gt;&lt;/b&gt;" style="rounded=1;whiteSpace=wrap;html=1;" vertex="1" parent="1">
          <mxGeometry x="-80" y="590" width="120" height="63" as="geometry" />
        </mxCell>
        <mxCell id="HYf7sJNPhCu9qOCA5l1V-92" value="" style="endArrow=none;dashed=1;html=1;dashPattern=1 3;strokeWidth=2;rounded=0;fontSize=10;entryX=0;entryY=0.5;entryDx=0;entryDy=0;" edge="1" parent="1" target="HYf7sJNPhCu9qOCA5l1V-93">
          <mxGeometry width="50" height="50" relative="1" as="geometry">
            <mxPoint x="100" y="430" as="sourcePoint" />
            <mxPoint x="133.1300000000001" y="599.265" as="targetPoint" />
            <Array as="points">
              <mxPoint x="100" y="305" />
            </Array>
          </mxGeometry>
        </mxCell>
        <mxCell id="HYf7sJNPhCu9qOCA5l1V-93" value="" style="triangle;whiteSpace=wrap;html=1;fontSize=10;" vertex="1" parent="1">
          <mxGeometry x="123.13" y="298.25" width="6.87" height="13.75" as="geometry" />
        </mxCell>
        <mxCell id="UZ0a1MYILR4OjAqma-lh-1" value="&lt;b style=&quot;&quot;&gt;&lt;font style=&quot;font-size: 22px; background-color: rgb(204, 229, 255);&quot;&gt;HDL TOP&lt;/font&gt;&lt;/b&gt;" style="text;html=1;strokeColor=none;fillColor=none;align=center;verticalAlign=middle;whiteSpace=wrap;rounded=0;" vertex="1" parent="1">
          <mxGeometry x="698.13" y="60" width="120.49" height="30" as="geometry" />
        </mxCell>
        <mxCell id="UZ0a1MYILR4OjAqma-lh-2" value="&lt;font style=&quot;font-size: 22px; background-color: rgb(100, 255, 18);&quot;&gt;&lt;b&gt;RTL&lt;/b&gt;&lt;/font&gt;" style="text;html=1;strokeColor=none;fillColor=none;align=center;verticalAlign=middle;whiteSpace=wrap;rounded=0;" vertex="1" parent="1">
          <mxGeometry x="890" y="360" width="60" height="30" as="geometry" />
        </mxCell>
        <mxCell id="UZ0a1MYILR4OjAqma-lh-3" value="" style="rounded=1;whiteSpace=wrap;html=1;align=left;fillColor=#ffcc99;strokeColor=#36393d;" vertex="1" parent="1">
          <mxGeometry x="-60" y="90" width="150" height="160" as="geometry" />
        </mxCell>
        <mxCell id="UZ0a1MYILR4OjAqma-lh-5" value="&lt;font size=&quot;1&quot; style=&quot;&quot;&gt;&lt;b style=&quot;font-size: 14px;&quot;&gt;REFERENCE&amp;nbsp; MODULE&lt;/b&gt;&lt;/font&gt;" style="rounded=1;whiteSpace=wrap;html=1;" vertex="1" parent="1">
          <mxGeometry x="-40" y="182.81" width="120" height="62.07" as="geometry" />
        </mxCell>
        <mxCell id="UZ0a1MYILR4OjAqma-lh-6" value="&lt;br&gt;&lt;b style=&quot;border-color: var(--border-color); text-align: left;&quot;&gt;&lt;font style=&quot;font-size: 14px;&quot;&gt;APB COLLECTOR&lt;/font&gt;&lt;/b&gt;" style="text;html=1;strokeColor=none;fillColor=none;align=center;verticalAlign=middle;whiteSpace=wrap;rounded=0;" vertex="1" parent="1">
          <mxGeometry x="-40" y="90" width="90" height="48.13" as="geometry" />
        </mxCell>
        <mxCell id="UZ0a1MYILR4OjAqma-lh-15" value="" style="rounded=1;whiteSpace=wrap;html=1;align=left;fillColor=#ffcc99;strokeColor=#36393d;" vertex="1" parent="1">
          <mxGeometry x="-60" y="380" width="150" height="160" as="geometry" />
        </mxCell>
        <mxCell id="UZ0a1MYILR4OjAqma-lh-16" value="&lt;font style=&quot;font-size: 14px;&quot;&gt;&lt;b&gt;I3C&amp;nbsp;&lt;br&gt;COLLECTOR&lt;/b&gt;&lt;/font&gt;" style="text;html=1;strokeColor=none;fillColor=none;align=center;verticalAlign=middle;whiteSpace=wrap;rounded=0;" vertex="1" parent="1">
          <mxGeometry x="-25" y="390" width="60" height="30" as="geometry" />
        </mxCell>
        <mxCell id="UZ0a1MYILR4OjAqma-lh-17" value="&lt;font size=&quot;1&quot; style=&quot;&quot;&gt;&lt;b style=&quot;font-size: 14px;&quot;&gt;REFERENCE&amp;nbsp; MODULE&lt;/b&gt;&lt;/font&gt;" style="rounded=1;whiteSpace=wrap;html=1;" vertex="1" parent="1">
          <mxGeometry x="-45" y="467.09" width="120" height="62.07" as="geometry" />
        </mxCell>
        <mxCell id="UZ0a1MYILR4OjAqma-lh-18" value="&lt;span style=&quot;font-size: 14px ; font-weight: 700&quot;&gt;I3C Target&lt;br&gt;DRIVER BFM&lt;/span&gt;" style="rounded=1;whiteSpace=wrap;html=1;" vertex="1" parent="1">
          <mxGeometry x="530" y="600" width="190" height="80" as="geometry" />
        </mxCell>
        <mxCell id="UZ0a1MYILR4OjAqma-lh-19" value="&lt;b style=&quot;border-color: var(--border-color); font-size: 13px;&quot;&gt;APB Master&lt;br style=&quot;border-color: var(--border-color);&quot;&gt;&lt;/b&gt;&lt;b style=&quot;border-color: var(--border-color);&quot;&gt;&lt;font style=&quot;font-size: 13px;&quot;&gt;DRIVER&lt;/font&gt;&lt;/b&gt;&lt;b style=&quot;border-color: var(--border-color); font-size: 13px;&quot;&gt;&amp;nbsp;BFM&lt;/b&gt;" style="rounded=1;whiteSpace=wrap;html=1;" vertex="1" parent="1">
          <mxGeometry x="520" y="270" width="190" height="80" as="geometry" />
        </mxCell>
        <mxCell id="UZ0a1MYILR4OjAqma-lh-20" value="&lt;b style=&quot;border-color: var(--border-color); font-size: 13px;&quot;&gt;APB Master&lt;br style=&quot;border-color: var(--border-color);&quot;&gt;&lt;/b&gt;&lt;b style=&quot;border-color: var(--border-color); font-size: 13px;&quot;&gt;MONITOR BFM&lt;/b&gt;" style="rounded=1;whiteSpace=wrap;html=1;" vertex="1" parent="1">
          <mxGeometry x="520" y="160" width="190" height="80" as="geometry" />
        </mxCell>
        <mxCell id="UZ0a1MYILR4OjAqma-lh-21" value="&lt;b&gt;APB MASTER&lt;br&gt;&amp;nbsp;DRIVER &lt;br&gt;PROXY&lt;/b&gt;" style="rounded=1;whiteSpace=wrap;html=1;" vertex="1" parent="1">
          <mxGeometry x="265" y="270" width="100" height="60" as="geometry" />
        </mxCell>
        <mxCell id="UZ0a1MYILR4OjAqma-lh-22" value="&lt;b&gt;I3C&amp;nbsp;&lt;br&gt;TARGET&amp;nbsp;&lt;br&gt;DRIVER &lt;br&gt;PROXY&lt;/b&gt;" style="rounded=1;whiteSpace=wrap;html=1;" vertex="1" parent="1">
          <mxGeometry x="265" y="615.94" width="100" height="67" as="geometry" />
        </mxCell>
        <mxCell id="UZ0a1MYILR4OjAqma-lh-26" value="" style="endArrow=none;dashed=1;html=1;dashPattern=1 3;strokeWidth=2;rounded=0;fontSize=10;exitX=1;exitY=0.5;exitDx=0;exitDy=0;entryX=0;entryY=0.5;entryDx=0;entryDy=0;" edge="1" parent="1" source="HYf7sJNPhCu9qOCA5l1V-91">
          <mxGeometry width="50" height="50" relative="1" as="geometry">
            <mxPoint x="90" y="628" as="sourcePoint" />
            <mxPoint x="100.00000000003047" y="425" as="targetPoint" />
            <Array as="points">
              <mxPoint x="100" y="621" />
              <mxPoint x="100" y="515" />
            </Array>
          </mxGeometry>
        </mxCell>
        <mxCell id="UZ0a1MYILR4OjAqma-lh-30" value="" style="endArrow=none;dashed=1;html=1;rounded=0;exitX=1;exitY=0.5;exitDx=0;exitDy=0;entryX=0;entryY=0.5;entryDx=0;entryDy=0;" edge="1" parent="1" source="HYf7sJNPhCu9qOCA5l1V-9" target="HYf7sJNPhCu9qOCA5l1V-30">
          <mxGeometry width="50" height="50" relative="1" as="geometry">
            <mxPoint x="120" y="650" as="sourcePoint" />
            <mxPoint x="170" y="600" as="targetPoint" />
            <Array as="points">
              <mxPoint x="90" y="700" />
              <mxPoint x="90" y="660" />
            </Array>
          </mxGeometry>
        </mxCell>
        <mxCell id="UZ0a1MYILR4OjAqma-lh-33" value="" style="ellipse;whiteSpace=wrap;html=1;aspect=fixed;" vertex="1" parent="1">
          <mxGeometry x="90" y="500" width="10" height="10" as="geometry" />
        </mxCell>
        <mxCell id="UZ0a1MYILR4OjAqma-lh-34" value="" style="endArrow=none;html=1;rounded=0;exitX=1;exitY=0.5;exitDx=0;exitDy=0;entryX=0;entryY=0.5;entryDx=0;entryDy=0;" edge="1" parent="1" target="HYf7sJNPhCu9qOCA5l1V-27">
          <mxGeometry width="50" height="50" relative="1" as="geometry">
            <mxPoint x="100" y="505" as="sourcePoint" />
            <mxPoint x="180" y="505" as="targetPoint" />
            <Array as="points">
              <mxPoint x="110" y="505" />
              <mxPoint x="160" y="505" />
              <mxPoint x="160" y="566" />
            </Array>
          </mxGeometry>
        </mxCell>
        <mxCell id="UZ0a1MYILR4OjAqma-lh-35" value="" style="endArrow=none;dashed=1;html=1;rounded=0;exitX=1;exitY=0.5;exitDx=0;exitDy=0;entryX=0;entryY=0.5;entryDx=0;entryDy=0;" edge="1" parent="1" source="HYf7sJNPhCu9qOCA5l1V-13" target="HYf7sJNPhCu9qOCA5l1V-40">
          <mxGeometry width="50" height="50" relative="1" as="geometry">
            <mxPoint x="-380" y="591" as="sourcePoint" />
            <mxPoint x="-80" y="622" as="targetPoint" />
            <Array as="points" />
          </mxGeometry>
        </mxCell>
        <mxCell id="HYf7sJNPhCu9qOCA5l1V-40" value="" style="triangle;whiteSpace=wrap;html=1;" vertex="1" parent="1">
          <mxGeometry x="-90" y="691.19" width="10" height="14.37" as="geometry" />
        </mxCell>
        <mxCell id="UZ0a1MYILR4OjAqma-lh-36" value="" style="triangle;whiteSpace=wrap;html=1;" vertex="1" parent="1">
          <mxGeometry x="-90" y="615.94" width="10" height="14.37" as="geometry" />
        </mxCell>
        <mxCell id="UZ0a1MYILR4OjAqma-lh-38" value="" style="rhombus;whiteSpace=wrap;html=1;fontSize=10;" vertex="1" parent="1">
          <mxGeometry x="-80" y="161.87" width="20" height="16.25" as="geometry" />
        </mxCell>
        <mxCell id="UZ0a1MYILR4OjAqma-lh-39" value="" style="ellipse;whiteSpace=wrap;html=1;aspect=fixed;" vertex="1" parent="1">
          <mxGeometry x="-120" y="240" width="20" height="20" as="geometry" />
        </mxCell>
        <mxCell id="UZ0a1MYILR4OjAqma-lh-40" value="" style="endArrow=classic;html=1;rounded=0;exitX=0;exitY=0.5;exitDx=0;exitDy=0;entryX=0.5;entryY=0;entryDx=0;entryDy=0;" edge="1" parent="1" source="UZ0a1MYILR4OjAqma-lh-38" target="UZ0a1MYILR4OjAqma-lh-39">
          <mxGeometry width="50" height="50" relative="1" as="geometry">
            <mxPoint x="-160" y="300" as="sourcePoint" />
            <mxPoint x="-110" y="250" as="targetPoint" />
            <Array as="points">
              <mxPoint x="-110" y="170" />
            </Array>
          </mxGeometry>
        </mxCell>
        <mxCell id="UZ0a1MYILR4OjAqma-lh-42" value="" style="rhombus;whiteSpace=wrap;html=1;fontSize=10;" vertex="1" parent="1">
          <mxGeometry x="-80" y="451.87" width="20" height="16.25" as="geometry" />
        </mxCell>
        <mxCell id="UZ0a1MYILR4OjAqma-lh-43" value="" style="ellipse;whiteSpace=wrap;html=1;aspect=fixed;" vertex="1" parent="1">
          <mxGeometry x="-120" y="370" width="20" height="20" as="geometry" />
        </mxCell>
        <mxCell id="UZ0a1MYILR4OjAqma-lh-44" value="" style="endArrow=classic;html=1;rounded=0;exitX=0;exitY=0.5;exitDx=0;exitDy=0;entryX=0.5;entryY=1;entryDx=0;entryDy=0;" edge="1" parent="1" source="UZ0a1MYILR4OjAqma-lh-42" target="UZ0a1MYILR4OjAqma-lh-43">
          <mxGeometry width="50" height="50" relative="1" as="geometry">
            <mxPoint x="-160" y="590" as="sourcePoint" />
            <mxPoint x="-110" y="540" as="targetPoint" />
            <Array as="points">
              <mxPoint x="-110" y="460" />
            </Array>
          </mxGeometry>
        </mxCell>
      </root>
    </mxGraphModel>
  </diagram>
</mxfile>
